<svg width="287" height="225" viewBox="0 0 287 225" fill="none" xmlns="http://www.w3.org/2000/svg">
<g clip-path="url(#clip0_17_1213)">
<path d="M141.98 77.8679C142.241 78.0417 142.501 78.0417 142.849 77.9548C143.196 77.8679 143.63 77.781 144.064 77.8679C144.412 77.9548 144.672 78.1286 144.759 78.3893C144.759 78.4762 144.759 78.5631 144.759 78.8239C144.672 79.0846 144.585 79.4322 144.412 79.7798C144.325 79.9536 144.238 80.0406 144.151 80.2144C144.064 80.3882 143.978 80.4751 143.891 80.6489L143.804 80.8227L143.717 80.9096L143.63 80.8227C143.543 80.6489 143.37 80.562 143.283 80.3882C143.109 80.1275 142.936 79.9536 142.849 79.7798C142.588 79.4322 142.501 79.0846 142.501 78.737C142.241 78.3893 142.241 78.0417 141.98 77.8679C141.807 77.6941 141.459 77.6941 141.025 78.0417C140.591 78.3893 140.157 79.2584 140.33 80.2144C140.33 80.7358 140.504 81.2572 140.765 81.7787C140.938 82.0394 141.025 82.2132 141.112 82.4739L141.199 82.6477L141.372 82.9085C141.459 83.0823 141.633 83.2561 141.807 83.4299C142.415 84.1251 143.283 84.5597 144.238 84.3859C144.672 84.2989 145.107 84.1251 145.541 83.7775C145.714 83.6037 145.975 83.4299 146.149 83.2561L146.409 82.9954L146.583 82.8215C146.756 82.6477 146.93 82.387 147.104 82.1263C147.277 81.8656 147.364 81.6049 147.538 81.3441C147.885 80.6489 148.059 79.9536 148.146 79.1715C148.233 78.3893 147.972 77.4334 147.538 76.7381C146.583 75.3476 144.846 75.0869 143.891 75.4345C142.849 75.7821 142.415 76.3905 142.154 76.825C141.72 77.3465 141.807 77.6941 141.98 77.8679Z" fill="#231B1B"/>
<path d="M89.2696 97.8563C89.5301 98.0301 89.7906 98.0301 90.138 97.9432C90.4853 97.8563 90.9195 97.7694 91.3537 97.8563C91.701 97.9432 91.9616 98.117 92.0484 98.3777C92.0484 98.4646 92.0484 98.5515 92.0484 98.8123C91.9616 99.073 91.8747 99.4206 91.701 99.7682C91.6142 99.942 91.5274 100.029 91.4405 100.203C91.3537 100.377 91.2669 100.463 91.18 100.637L91.0932 100.811L91.0063 100.898L90.9195 100.811C90.8327 100.637 90.659 100.55 90.5722 100.377C90.3985 100.116 90.2248 99.942 90.138 99.7682C89.8774 99.4206 89.7906 99.073 89.7906 98.7254C89.5301 98.3777 89.4433 98.0301 89.2696 97.8563C89.0959 97.6825 88.7485 97.6825 88.3144 98.0301C87.8802 98.3777 87.446 99.2468 87.6197 100.203C87.6197 100.724 87.7933 101.246 88.0538 101.767C88.2275 102.028 88.3144 102.202 88.4012 102.462L88.488 102.636L88.6617 102.897C88.7485 103.071 88.9222 103.244 89.0959 103.418C89.7038 104.114 90.5722 104.548 91.5274 104.374C91.9616 104.287 92.3958 104.114 92.8299 103.766C93.0036 103.592 93.2641 103.418 93.4378 103.244L93.6983 102.984L93.872 102.81C94.0457 102.636 94.2193 102.375 94.393 102.115C94.5667 101.854 94.6535 101.593 94.8272 101.333C95.1746 100.637 95.3482 99.942 95.4351 99.1599C95.5219 98.3777 95.2614 97.4218 94.8272 96.7265C93.872 95.336 92.1352 95.0753 91.18 95.4229C90.138 95.7706 89.7038 96.3789 89.4433 96.8134C89.0091 97.3349 89.0091 97.6825 89.2696 97.8563Z" fill="#A8A8A8"/>
<path d="M188.091 79.2584C188.352 79.4322 188.612 79.4322 188.96 79.3453C189.307 79.2584 189.741 79.1715 190.175 79.2584C190.523 79.3453 190.783 79.5191 190.87 79.7798C190.87 79.8667 190.87 79.9537 190.87 80.2144C190.783 80.4751 190.696 80.8227 190.523 81.1703C190.436 81.3441 190.349 81.4311 190.262 81.6049C190.175 81.7787 190.089 81.8656 190.002 82.0394L189.915 82.2132L189.828 82.3001L189.741 82.2132C189.654 82.0394 189.481 81.9525 189.394 81.7787C189.22 81.518 189.047 81.3441 188.96 81.1703C188.699 80.8227 188.612 80.4751 188.612 80.1275C188.352 79.7798 188.265 79.4322 188.091 79.2584C187.918 79.0846 187.57 79.0846 187.136 79.4322C186.702 79.7798 186.268 80.6489 186.441 81.6049C186.441 82.1263 186.615 82.6477 186.876 83.1692C187.049 83.4299 187.136 83.6037 187.223 83.8644L187.31 84.0382L187.483 84.299C187.57 84.4728 187.744 84.6466 187.918 84.8204C188.526 85.5156 189.394 85.9502 190.349 85.7764C190.783 85.6895 191.218 85.5156 191.652 85.168C191.825 84.9942 192.086 84.8204 192.26 84.6466L192.52 84.3859L192.694 84.212C192.867 84.0382 193.041 83.7775 193.215 83.5168C193.388 83.2561 193.475 82.9954 193.649 82.7346C193.996 82.0394 194.17 81.3441 194.257 80.562C194.344 79.7798 194.083 78.8239 193.649 78.1286C192.694 76.7381 190.957 76.4774 190.002 76.825C188.96 77.1727 188.526 77.781 188.265 78.2155C187.831 78.737 187.831 79.0846 188.091 79.2584Z" fill="#A8A8A8"/>
<path d="M224.737 59.0093C223.956 58.2272 222.219 59.27 220.308 61.0951C220.221 61.182 220.135 61.2689 220.048 61.3558C219.961 61.4427 219.874 61.5296 219.787 61.6165C218.051 63.5284 216.922 65.1797 217.703 66.0487C218.398 66.744 220.221 65.788 222.132 63.963C222.219 63.8761 222.306 63.7892 222.392 63.7023C222.479 63.6154 222.566 63.5284 222.653 63.4415C224.39 61.5296 225.432 59.7046 224.737 59.0093Z" fill="#A8A8A8"/>
<path d="M121.4 103.418C120.358 102.984 119.75 103.245 119.316 103.94V104.027C119.316 104.027 119.316 104.114 119.229 104.114C118.968 104.809 119.229 105.504 120.271 105.939C121.226 106.373 121.921 106.026 122.355 105.417V105.33C122.355 105.33 122.355 105.243 122.442 105.243C122.615 104.548 122.355 103.853 121.4 103.418Z" fill="#A8A8A8"/>
<path d="M65.2154 94.9884C64.4339 95.7705 64.4339 96.4658 64.8681 96.9872L64.9549 97.0741L65.0418 97.161C65.5628 97.5956 66.2575 97.5956 67.039 96.8134C67.7337 96.1182 67.8206 95.336 67.3864 94.8146L67.2995 94.7277L67.2127 94.6408C66.7785 94.2062 65.997 94.2062 65.2154 94.9884Z" fill="#A8A8A8"/>
<path d="M75.2887 9.47274C74.7676 9.47274 74.3335 9.90727 74.1598 10.6025C73.9861 11.2978 74.0729 12.2537 74.4203 13.2966L74.5071 13.5573L74.594 13.818C75.0282 14.774 75.7229 15.5562 76.3307 15.9907C76.9386 16.4252 77.4596 16.4252 77.8938 16.0776C78.6754 15.3824 78.2412 14.0788 77.6333 12.5145L77.5465 12.2537V12.1668C76.9386 10.6894 76.3307 9.38583 75.2887 9.47274Z" fill="#A8A8A8"/>
<path d="M135.12 25.2898C134.339 24.5076 133.297 24.8552 132.428 25.6374C132.428 25.6374 132.341 25.7243 132.341 25.8112C132.254 25.8112 132.254 25.8981 132.168 25.8981C131.386 26.8541 131.039 27.81 131.82 28.5922C132.515 29.2874 133.557 29.0267 134.512 28.2446C134.512 28.1577 134.599 28.1577 134.599 28.0708C134.686 28.0708 134.686 27.9839 134.773 27.9839C135.554 27.0279 135.815 25.985 135.12 25.2898Z" fill="#A8A8A8"/>
<path d="M238.631 99.7683C237.85 98.9861 236.894 99.2469 236.113 99.9421L236.026 100.029L235.939 100.116C235.244 100.898 234.984 101.854 235.765 102.636C236.46 103.331 237.502 103.158 238.284 102.462L238.371 102.375L238.457 102.289C239.152 101.42 239.413 100.464 238.631 99.7683Z" fill="#A8A8A8"/>
<path d="M169.682 24.8551C168.9 24.073 168.466 23.8123 168.292 23.8123C168.205 23.9861 168.466 24.3337 169.334 25.2028C170.029 25.898 170.55 26.2456 170.724 26.2456C170.724 26.0718 170.463 25.6373 169.682 24.8551Z" fill="#A8A8A8"/>
<path d="M184.01 0.34764C183.228 -0.434515 181.665 0.434547 180.102 1.91195C180.015 1.99886 179.929 2.08576 179.842 2.17267C179.755 2.25958 179.668 2.34648 179.581 2.43339C178.105 3.9977 177.237 5.4751 178.018 6.34416C178.713 7.03941 180.276 6.25726 181.926 4.77985C182.013 4.69295 182.1 4.60604 182.186 4.51914C182.273 4.43223 182.36 4.34532 182.447 4.25842C183.923 2.6072 184.791 1.04289 184.01 0.34764Z" fill="#A8A8A8"/>
<path d="M116.624 42.0626C116.45 41.8019 114.713 42.7579 111.848 44.7567C110.371 45.7996 108.635 47.1032 106.724 48.8413C104.814 50.5794 102.816 52.7521 100.993 55.5331C99.1692 58.3141 97.8666 62.051 97.9534 66.1356C98.0403 70.2202 99.6034 74.4786 102.556 78.0418C104.032 79.7799 105.856 81.4311 107.94 82.6478C110.024 83.8645 112.542 84.7335 115.147 84.8204C117.753 84.9073 120.618 84.2121 122.876 82.6478C125.134 81.0835 126.957 78.8239 127.999 76.1298C128.781 73.9572 129.041 71.6107 128.607 69.3512C128.347 68.2214 127.913 67.0047 127.131 65.9618C126.349 64.9189 125.134 64.1368 124.005 63.7023C121.139 62.7463 118.1 63.007 115.582 64.0499C113.063 65.0927 110.892 66.8309 109.329 68.8297C108.548 69.7857 107.766 70.9155 107.245 72.0452C106.724 73.175 106.29 74.3048 105.943 75.4346C105.248 77.781 104.987 80.0406 104.9 82.3002C104.814 86.7324 105.422 90.817 106.029 94.5539C106.724 98.2909 107.506 101.767 108.461 104.809C110.284 110.979 112.369 115.672 114.018 118.888C115.668 122.016 116.797 123.581 117.058 123.494C117.318 123.407 116.537 121.582 115.321 118.279C114.105 115.064 112.282 110.284 110.805 104.201C110.024 101.159 109.329 97.7695 108.808 94.1194C108.287 90.4693 107.853 86.4717 108.027 82.3871C108.113 80.3882 108.374 78.3025 108.982 76.3036C109.59 74.3048 110.458 72.3929 111.848 70.8286C113.15 69.1773 114.887 67.8737 116.884 67.0916C118.795 66.3094 121.052 66.1356 122.876 66.8309C123.571 67.0916 124.179 67.4392 124.526 67.9607C124.96 68.4821 125.221 69.1773 125.394 69.9595C125.742 71.5238 125.568 73.2619 124.96 74.9131C124.179 76.912 122.789 78.737 121.139 79.8668C119.402 81.0835 117.405 81.6049 115.408 81.518C113.411 81.4311 111.413 80.8228 109.59 79.8668C107.853 78.9108 106.29 77.5203 104.987 76.0429C102.469 73.0881 101.08 69.3512 100.819 65.9618C100.645 62.4856 101.687 59.3569 103.164 56.7498C104.64 54.1426 106.464 51.9699 108.2 50.2318C109.937 48.4937 111.5 47.0163 112.803 45.8865C115.321 43.54 116.797 42.2364 116.624 42.0626Z" fill="#1B1B1B"/>
<path d="M267.201 168.685C267.201 168.685 279.358 163.818 286.218 169.033C293.079 174.247 253.307 187.37 231.597 188.413C255.217 181.199 265.204 177.115 265.204 177.115L267.201 168.685Z" fill="black"/>
<path d="M215.445 136.095C209.975 121.06 208.238 124.276 204.156 122.711C197.296 120.017 185.834 118.019 185.834 118.019V99.1599L265.551 123.407L215.445 136.095Z" fill="#E2E2E2"/>
<path d="M131.386 144.004L127.826 145.22L128.868 102.636L205.98 122.798L131.386 144.004Z" fill="#E2E2E2"/>
<path d="M131.386 144.004C131.733 145.133 146.756 141.309 166.208 135.834C167.163 135.574 168.119 135.313 169.074 134.965C170.029 134.705 170.984 134.444 171.939 134.183C191.391 128.621 206.154 123.928 205.893 122.798C205.633 121.842 190.523 125.493 171.071 130.968C170.116 131.228 169.161 131.489 168.205 131.837C167.25 132.097 166.295 132.358 165.34 132.619C145.888 138.268 131.039 143.048 131.386 144.004Z" fill="#1B1B1B"/>
<path d="M205.893 144.004C205.372 144.004 205.025 149.392 204.764 158.517C204.678 163.036 204.591 168.511 204.504 174.681C204.504 180.417 204.417 186.848 204.417 193.714C202.68 194.148 200.943 194.67 199.12 195.191C197.557 195.626 195.994 196.06 194.431 196.495C192.868 196.929 191.304 197.364 189.741 197.798C174.024 202.231 160.216 206.141 150.317 209.183C140.417 212.225 134.512 214.311 134.686 214.832C134.86 215.353 140.938 214.05 151.012 211.53C161.085 209.009 174.979 205.359 190.697 201.014C192.26 200.579 193.823 200.145 195.386 199.71C196.949 199.276 198.512 198.841 200.075 198.407C202.68 197.712 205.285 196.929 207.804 196.234C207.804 192.15 207.717 188.152 207.717 184.415C207.63 181.026 207.63 177.81 207.543 174.681C207.456 168.511 207.283 163.123 207.109 158.517C206.762 149.392 206.327 144.004 205.893 144.004Z" fill="#1B1B1B"/>
<path d="M129.389 216.744C129.562 216.222 123.223 214.05 112.629 210.921C102.035 207.793 87.1855 203.621 70.4257 199.015C68.6889 198.581 67.039 198.146 65.3891 197.625C63.7392 197.19 62.0892 196.755 60.3525 196.234C57.5737 195.539 54.9685 194.757 52.3634 194.061C52.1897 187.022 52.016 180.417 51.9292 174.508C51.7555 168.25 51.5818 162.688 51.3213 157.995C50.8871 148.696 50.4529 143.221 49.9319 143.221C49.4977 143.221 49.1504 148.696 49.0635 157.995C48.9767 162.601 48.9767 168.163 48.9767 174.508C48.9767 177.636 48.9767 181.025 48.9767 184.502C48.9767 188.413 49.0635 192.41 49.0635 196.582C52.4502 197.538 55.8369 198.494 59.3973 199.45C61.134 199.884 62.7839 200.319 64.4339 200.84C66.0838 201.275 67.7337 201.709 69.4705 202.231C86.3171 206.75 101.166 210.66 111.934 213.268C122.702 215.875 129.215 217.265 129.389 216.744Z" fill="#1B1B1B"/>
<path d="M49.9319 124.363C49.7583 124.884 57.0527 127.231 69.1232 130.794C81.1937 134.27 98.1271 138.963 117.231 144.177C119.142 144.699 121.052 145.22 122.963 145.742L125.134 146.35L126.089 146.611V146.698C126.436 166.512 126.784 184.067 127.305 196.669C127.739 209.27 128.26 216.831 128.868 216.831C129.389 216.831 129.649 209.183 129.736 196.582C129.823 183.98 129.736 166.425 129.476 146.611V144.003L123.831 142.526C121.921 142.005 120.01 141.483 118.1 140.962C98.9086 135.834 81.9752 131.489 69.731 128.534C57.4868 125.579 50.0188 123.841 49.9319 124.363Z" fill="#1B1B1B"/>
<path d="M202.333 122.19C202.507 121.669 195.299 119.409 183.402 116.107C171.505 112.804 154.832 108.459 135.989 103.592C133.991 103.071 131.994 102.549 130.084 102.115L129.823 102.028L123.918 103.592C105.074 108.546 88.4881 113.065 76.5912 116.454C64.6944 119.844 57.5737 122.103 57.7474 122.711C57.921 123.233 65.2154 121.669 77.1991 118.801C89.1828 115.933 105.856 111.674 124.7 106.808L129.823 105.504C131.56 105.939 133.383 106.373 135.12 106.895C153.964 111.674 170.724 115.759 182.707 118.453C194.865 121.234 202.246 122.711 202.333 122.19Z" fill="#1B1B1B"/>
<path d="M222.392 134.531C222.479 134.965 226.734 134.183 234.116 132.532C241.497 130.881 251.917 128.273 264.422 125.145L264.596 125.058C264.683 125.058 264.683 125.058 264.683 125.058V125.406C264.683 126.622 264.683 127.752 264.683 128.969C264.683 131.402 264.683 133.835 264.683 136.356C264.683 141.396 264.683 146.698 264.596 152.086C264.596 154.172 264.596 156.257 264.596 158.256C264.596 160.342 264.596 162.341 264.596 164.426C264.596 167.034 264.596 169.554 264.596 172.074V173.03C264.596 173.291 264.596 173.465 264.509 173.725C264.422 174.16 264.335 174.594 264.162 175.029C263.814 175.898 263.206 176.593 262.425 177.028C262.251 177.115 262.077 177.289 261.817 177.375L261.73 177.462C261.73 177.462 261.73 177.462 261.643 177.462L261.209 177.549C260.601 177.723 260.08 177.897 259.472 178.071C258.343 178.418 257.215 178.679 256.086 179.027C253.828 179.635 251.657 180.243 249.573 180.852C241.063 183.285 233.508 185.371 227.255 187.283C214.664 191.02 207.109 193.453 207.196 194.061C207.369 194.583 215.098 192.845 227.863 189.629C234.202 188.065 241.844 186.066 250.354 183.807C252.525 183.285 254.696 182.677 256.867 182.068C257.996 181.808 259.125 181.46 260.254 181.199C260.862 181.026 261.383 180.852 261.991 180.765L262.425 180.678C262.425 180.678 262.685 180.591 262.772 180.591L263.033 180.504C263.38 180.33 263.727 180.156 264.075 179.983C265.377 179.2 266.419 177.984 267.114 176.593C267.461 175.898 267.635 175.116 267.809 174.334C267.896 173.986 267.896 173.552 267.896 173.204V172.248C267.896 169.728 267.896 167.207 267.896 164.6C267.896 162.515 267.896 160.429 267.896 158.43C267.896 156.344 267.896 154.345 267.896 152.26C267.896 146.784 267.896 141.57 267.809 136.53C267.809 134.009 267.809 131.489 267.722 129.143C267.722 127.926 267.722 126.709 267.722 125.579C267.722 125.406 267.722 124.623 267.548 124.189C267.375 123.667 267.027 123.233 266.593 122.885C265.725 122.19 264.509 122.016 263.467 122.451L263.641 122.364C251.223 125.753 240.889 128.621 233.595 130.794C226.3 132.966 222.306 134.183 222.392 134.531Z" fill="#1B1B1B"/>
<path d="M261.122 122.016C261.47 120.886 240.889 114.369 214.056 106.286C212.667 105.852 211.364 105.504 210.061 105.07C208.759 104.635 207.369 104.287 206.067 103.853C202.507 102.81 199.12 101.854 195.82 100.898C192.346 99.9421 189.133 98.9861 186.007 98.1171C183.75 98.8123 181.665 99.5076 179.581 100.116C177.671 100.724 175.847 101.333 174.197 101.854C170.811 102.984 167.858 103.94 165.427 104.809C160.564 106.46 157.872 107.677 157.959 108.024C158.045 108.372 160.998 107.851 165.948 106.634C168.466 106.026 171.418 105.243 174.892 104.374C178.192 103.505 181.926 102.462 186.007 101.333C188.786 102.202 191.825 103.158 194.952 104.114C198.251 105.07 201.638 106.112 205.112 107.155C206.501 107.59 207.804 107.937 209.106 108.372C210.409 108.807 211.798 109.154 213.101 109.589C240.021 117.41 260.862 122.972 261.122 122.016Z" fill="#1B1B1B"/>
<path d="M128.434 141.744C129.562 141.744 130.084 133.922 130.344 123.754C130.344 123.233 130.344 122.712 130.344 122.19C130.344 121.669 130.344 121.147 130.344 120.626C130.344 110.458 129.997 102.636 128.868 102.549C127.826 102.549 127.218 110.371 127.044 120.539C127.044 121.06 127.044 121.582 127.044 122.103C127.044 122.625 127.044 123.146 127.044 123.668C126.957 133.922 127.392 141.744 128.434 141.744Z" fill="#1B1B1B"/>
<path d="M185.92 118.019C187.049 118.019 187.484 114.369 187.57 109.589C187.57 109.328 187.57 109.154 187.57 108.893C187.57 108.633 187.57 108.459 187.57 108.198C187.484 103.418 187.049 99.7683 185.92 99.7683C184.878 99.7683 184.357 103.418 184.271 108.198C184.271 108.459 184.271 108.633 184.271 108.893C184.271 109.154 184.271 109.328 184.271 109.589C184.357 114.369 184.878 118.019 185.92 118.019Z" fill="#1B1B1B"/>
<path d="M129.823 145.655C129.823 145.829 130.257 146.002 131.039 146.35C131.82 146.698 132.949 147.393 134.165 148.436C135.381 149.565 136.596 151.13 137.552 153.216C138.073 154.258 138.42 155.475 138.854 156.779C139.028 157.387 139.202 158.082 139.375 158.778C139.636 159.907 139.983 161.124 140.244 162.341C145.107 160.95 150.751 159.299 156.83 157.561C162.474 155.91 168.553 154.085 174.979 152.173C176.455 151.738 177.931 151.304 179.408 150.869C180.884 150.435 182.36 150 183.836 149.565C191.218 147.306 198.251 145.133 204.504 143.134C207.63 142.178 210.582 141.222 213.361 140.267C214.056 140.006 214.751 139.832 215.359 139.571C215.966 139.397 216.487 139.224 217.095 139.05C217.356 138.963 217.703 138.876 217.964 138.789L218.137 138.702C218.224 138.702 218.224 138.702 218.137 138.615V138.528L218.051 138.094C217.877 137.486 217.703 136.964 217.616 136.356C217.53 136.008 217.356 135.574 217.269 135.226C217.095 134.618 216.922 134.009 216.661 133.401C215.793 130.968 214.838 128.882 213.535 127.231C212.319 125.579 210.843 124.45 209.627 123.754C208.325 123.059 207.283 122.798 206.501 122.711C205.72 122.625 205.372 122.711 205.372 122.885C205.285 123.233 206.848 123.407 208.846 124.971C209.888 125.753 210.93 126.883 211.972 128.447C212.927 130.012 213.795 131.924 214.403 134.27C214.577 134.878 214.751 135.4 214.838 136.095L214.924 136.53L215.011 136.703V136.79V137.051C215.098 137.138 214.924 137.138 214.838 137.138H214.751H214.664C214.664 137.138 214.664 137.138 214.577 137.138C213.882 137.312 213.188 137.486 212.493 137.746C209.714 138.528 206.675 139.397 203.549 140.353C197.209 142.178 190.175 144.264 182.794 146.524C181.318 146.958 179.842 147.393 178.366 147.914C176.889 148.349 175.413 148.783 173.937 149.218C167.511 151.217 161.432 153.129 155.874 154.78C153.096 155.649 150.404 156.518 147.885 157.3C146.583 157.735 145.367 158.082 144.238 158.517C143.63 158.691 143.022 158.864 142.501 159.125C142.328 159.212 142.241 159.212 142.067 159.299L141.98 159.038C141.893 158.951 141.893 158.864 141.807 158.43C141.633 157.735 141.372 157.039 141.112 156.344C140.591 154.954 140.07 153.737 139.462 152.607C138.246 150.348 136.683 148.609 135.207 147.567C133.731 146.437 132.341 146.002 131.386 145.829C130.344 145.394 129.91 145.568 129.823 145.655Z" fill="#1B1B1B"/>
<path d="M126.436 146.176C126.436 146.002 125.915 145.915 124.96 146.089C124.005 146.263 122.615 146.698 121.139 147.827C119.663 148.87 118.013 150.608 116.797 152.868C116.189 153.998 115.668 155.301 115.147 156.605C114.887 157.3 114.713 157.995 114.453 158.691L114.279 159.212L114.192 159.299L114.105 159.473L113.932 159.386H113.845C113.845 159.386 113.845 159.386 113.758 159.386C113.15 159.212 112.542 159.038 112.021 158.864C110.805 158.517 109.59 158.169 108.287 157.735C105.769 156.953 102.99 156.257 100.211 155.388C94.5667 153.824 88.4012 152.086 81.9752 150.261C80.499 149.826 79.0227 149.479 77.4596 149.044C75.9834 148.61 74.5071 148.262 73.0309 147.827C65.5628 145.742 58.5289 143.83 52.1029 142.178C48.8899 141.309 45.8505 140.527 43.0717 139.832C42.377 139.658 41.6823 139.484 40.9876 139.311C40.9008 139.311 40.9008 139.311 40.9008 139.311H40.8139H40.7271C40.6403 139.311 40.5534 139.311 40.5534 139.224C40.4666 139.397 40.9008 137.572 41.2481 136.53C41.9428 134.27 42.7244 132.271 43.6796 130.707C44.6348 129.143 45.7637 128.013 46.7189 127.231C48.7162 125.666 50.2793 125.406 50.1925 125.058C50.1925 124.971 49.7583 124.884 49.0636 124.971C48.282 125.058 47.24 125.319 45.9374 126.014C44.7217 126.709 43.2454 127.839 42.0297 129.49C40.7271 131.141 39.7719 133.227 38.9035 135.661C38.4693 136.964 38.2088 137.659 37.5141 140.44L37.4272 140.875V140.962C37.4272 140.962 37.5141 140.962 37.5141 141.049L37.6878 141.136C37.9483 141.222 38.2956 141.309 38.5561 141.396C39.164 141.57 39.685 141.744 40.2929 141.918C40.9876 142.092 41.6823 142.352 42.377 142.526C45.1558 143.308 48.1952 144.264 51.3213 145.133C57.6605 146.958 64.6944 148.957 72.1625 151.043C73.6387 151.477 75.115 151.825 76.5912 152.26C78.0675 152.694 79.5437 153.042 81.02 153.476C87.5328 155.214 93.6983 156.866 99.3428 158.43C105.508 159.994 111.153 161.472 116.016 162.775C116.276 161.559 116.624 160.429 116.884 159.299C117.058 158.604 117.231 157.908 117.405 157.3C117.753 155.997 118.187 154.78 118.708 153.737C119.663 151.564 120.879 150 122.094 148.87C123.31 147.74 124.439 147.132 125.221 146.784C126.002 146.524 126.523 146.35 126.436 146.176Z" fill="#1B1B1B"/>
<path d="M4.42875 218.656C4.16823 217.526 3.21301 217.352 1.99728 217.526C1.91044 217.526 1.91044 217.526 1.8236 217.613C1.73677 217.613 1.73677 217.613 1.64993 217.613C0.521032 217.961 -0.260511 218.656 2.96533e-06 219.699C0.260517 220.742 1.21574 221.002 2.43147 220.829C2.51831 220.829 2.51831 220.829 2.60515 220.742C2.69198 220.742 2.69198 220.742 2.77882 220.742C3.90772 220.394 4.68926 219.612 4.42875 218.656Z" fill="#1B1B1B"/>
<path d="M65.997 188.239C66.0838 187.891 64.3471 187.196 62.0024 186.588L61.6551 186.501L61.3077 186.414C58.8763 185.979 57.0527 185.979 56.9658 186.327C56.9658 186.674 58.7894 186.935 61.0472 187.457L61.3946 187.544L61.7419 187.63C64.1734 188.065 65.9101 188.586 65.997 188.239Z" fill="#1B1B1B"/>
<path d="M74.6808 194.061C74.7676 193.801 71.6415 192.323 67.2996 191.28C67.039 191.194 66.8654 191.194 66.6048 191.107C66.4312 191.02 66.1707 191.02 65.9101 190.933C61.4814 189.977 58.0947 189.89 58.0079 190.238C58.0079 190.585 61.3946 190.933 65.6496 191.976C65.8233 192.063 66.0838 192.063 66.2575 192.15C66.4312 192.236 66.6917 192.236 66.8654 192.323C71.3809 193.279 74.594 194.409 74.6808 194.061Z" fill="#1B1B1B"/>
<path d="M154.311 124.71C154.398 124.363 151.446 123.059 147.364 121.843C147.191 121.756 146.93 121.756 146.756 121.669C146.583 121.582 146.322 121.582 146.149 121.495C141.98 120.452 138.767 120.104 138.68 120.452C138.594 120.8 141.807 121.408 145.888 122.451C146.062 122.538 146.322 122.538 146.496 122.625C146.67 122.712 146.93 122.712 147.104 122.798C151.098 123.928 154.225 124.971 154.311 124.71Z" fill="#1B1B1B"/>
<path d="M142.415 125.319C142.588 124.971 141.98 124.623 141.286 124.189C141.286 124.189 141.199 124.189 141.199 124.102C141.199 124.102 141.112 124.102 141.112 124.015C140.33 123.668 139.636 123.494 139.549 123.754C139.375 124.015 139.983 124.45 140.678 124.884C140.678 124.884 140.765 124.884 140.765 124.971C140.765 124.971 140.851 124.971 140.851 125.058C141.633 125.493 142.241 125.579 142.415 125.319Z" fill="#1B1B1B"/>
<path d="M231.858 160.603C232.118 160.776 233.334 158.778 234.637 155.997C234.723 155.823 234.723 155.736 234.81 155.562C234.897 155.388 234.897 155.301 234.984 155.128C236.2 152.347 236.808 150.087 236.547 150C236.287 149.913 235.331 151.999 234.116 154.693C234.029 154.867 234.029 154.954 233.942 155.128C233.855 155.301 233.855 155.388 233.768 155.562C232.466 158.343 231.51 160.429 231.858 160.603Z" fill="#1B1B1B"/>
<path d="M234.723 161.732C235.071 161.819 235.418 161.124 235.766 160.081C235.766 159.994 235.766 159.994 235.852 159.907C235.852 159.82 235.852 159.82 235.939 159.734C236.2 158.691 236.287 157.909 236.026 157.822C235.765 157.735 235.331 158.43 234.984 159.473C234.984 159.56 234.984 159.56 234.897 159.647C234.897 159.734 234.897 159.734 234.81 159.82C234.463 160.863 234.376 161.646 234.723 161.732Z" fill="#1B1B1B"/>
<path d="M189.568 59.4438C188.352 64.5713 184.271 68.9166 180.015 70.394C175.674 71.9583 170.811 70.4809 168.9 66.1356C166.121 59.7914 170.116 50.0579 178.713 47.7115C186.876 45.4519 191.218 52.2306 189.568 59.4438Z" fill="#E2E2E2"/>
<path d="M185.66 45.7126C185.747 45.4519 185.052 44.7566 183.315 44.1483C182.447 43.8876 181.318 43.7138 180.015 43.8007C179.668 43.8007 179.321 43.8876 178.973 43.8876C178.626 43.9745 178.279 44.0614 177.931 44.1483C177.584 44.2352 177.237 44.3221 176.802 44.409C176.455 44.5828 176.108 44.6697 175.674 44.8436C174.892 45.1043 174.197 45.5388 173.329 45.9733C172.982 46.2341 172.547 46.4948 172.2 46.7555C172.026 46.9293 171.853 47.0162 171.592 47.19C171.418 47.3638 171.245 47.5376 171.071 47.7115C169.595 49.0151 168.379 50.7532 167.337 52.6651C166.382 54.6639 165.687 56.9235 165.513 59.3569C165.34 61.7903 165.6 64.3974 166.903 66.9177C167.424 67.9606 168.119 68.8296 168.987 69.6118C169.855 70.394 170.724 71.0023 171.766 71.4368C174.371 72.5666 177.063 72.6535 179.494 72.1321C181.926 71.6106 184.097 70.394 185.747 69.0035C189.22 66.2225 191.218 62.6593 191.825 59.4438C192.433 56.2283 191.912 53.5342 191.218 51.9699C190.523 50.3186 189.741 49.7103 189.481 49.7972C189.22 49.971 189.568 50.8401 189.828 52.4044C190.089 53.9687 190.262 56.2283 189.481 58.9224C188.699 61.5295 186.876 64.4843 183.836 66.657C182.36 67.6999 180.623 68.6558 178.713 69.0035C176.802 69.3511 174.805 69.2642 172.982 68.482C172.287 68.1344 171.592 67.6999 171.071 67.2653C170.55 66.7439 170.029 66.1356 169.682 65.4403C168.726 63.7022 168.466 61.6164 168.64 59.6176C168.727 57.6188 169.248 55.7068 170.029 54.0556C170.811 52.4044 171.766 50.927 172.895 49.7972C173.068 49.6234 173.155 49.5365 173.329 49.3627L173.763 49.0151C174.024 48.7543 174.371 48.4936 174.632 48.3198C175.239 47.8853 175.847 47.4507 176.455 47.19C176.802 47.0162 177.063 46.8424 177.323 46.7555C177.671 46.6686 177.931 46.5817 178.192 46.4079C178.8 46.1471 179.321 45.9733 179.842 45.8864C180.884 45.6257 181.839 45.6257 182.621 45.7126C184.705 45.7126 185.573 45.9733 185.66 45.7126Z" fill="#231B1B"/>
<path d="M180.363 53.4473C179.234 53.5342 179.06 56.1414 178.887 59.3569C178.887 59.5307 178.887 59.7045 178.887 59.8784C178.887 60.0522 178.887 60.226 178.887 60.3998C178.887 63.6153 178.887 66.1356 180.015 66.3963C181.058 66.5701 182.1 64.0498 182.273 60.4867C182.273 60.3129 182.273 60.1391 182.273 59.9653C182.273 59.7914 182.273 59.6176 182.273 59.4438C182.186 55.9676 181.405 53.3604 180.363 53.4473Z" fill="#231B1B"/>
<path d="M185.92 58.5748C185.66 57.445 183.315 57.5319 180.363 58.1402C180.189 58.1402 180.102 58.2271 179.929 58.2271C179.755 58.2271 179.668 58.314 179.494 58.314C176.629 59.0962 174.458 60.0522 174.718 61.182C174.979 62.2248 177.324 62.2248 180.276 61.6165C180.45 61.6165 180.537 61.5296 180.71 61.5296C180.884 61.5296 180.971 61.4427 181.144 61.4427C184.01 60.6605 186.094 59.6176 185.92 58.5748Z" fill="#231B1B"/>
<path d="M100.038 224.652C100.559 225.695 104.553 224.131 109.763 222.219C110.024 222.132 110.284 222.045 110.545 221.958C110.805 221.871 111.066 221.785 111.326 221.698C116.537 219.786 120.618 218.395 120.271 217.265C120.01 216.309 115.582 216.744 110.198 218.569C109.937 218.656 109.677 218.743 109.416 218.83C109.156 218.917 108.895 219.004 108.635 219.09C103.164 221.176 99.5165 223.696 100.038 224.652Z" fill="#1B1B1B"/>
<path d="M96.2167 223.262C96.6509 224.305 100.645 223.001 105.769 221.089C106.029 221.002 106.29 220.916 106.55 220.829C106.811 220.742 107.071 220.655 107.332 220.568C112.369 218.569 116.189 216.831 115.842 215.788C115.495 214.832 111.326 215.614 106.116 217.439C105.856 217.526 105.595 217.613 105.335 217.7C105.074 217.787 104.814 217.874 104.553 217.961C99.4297 220.046 95.8693 222.306 96.2167 223.262Z" fill="#1B1B1B"/>
<path d="M92.3958 222.567C92.9168 223.61 96.9114 222.045 102.122 220.133C102.382 220.046 102.643 219.96 102.903 219.873C103.164 219.786 103.424 219.699 103.685 219.612C108.895 217.7 112.976 216.309 112.629 215.18C112.369 214.224 107.94 214.658 102.556 216.483C102.295 216.57 102.035 216.657 101.774 216.744C101.514 216.831 101.253 216.918 100.993 217.005C95.6088 219.09 91.9616 221.611 92.3958 222.567Z" fill="#1B1B1B"/>
<path d="M88.6618 221.176C89.0959 222.219 93.0905 220.915 98.2139 219.003C98.4745 218.917 98.735 218.83 98.9955 218.743C99.256 218.656 99.5165 218.569 99.777 218.482C104.814 216.483 108.635 214.745 108.287 213.702C107.94 212.746 103.772 213.528 98.5613 215.353C98.3008 215.44 98.0403 215.527 97.7798 215.614C97.5192 215.701 97.2587 215.788 96.9982 215.875C91.8748 217.961 88.2276 220.22 88.6618 221.176Z" fill="#1B1B1B"/>
<path d="M79.8042 223.957C80.3253 225 85.9697 222.393 93.4378 219.699C93.7852 219.525 94.2193 219.438 94.5667 219.264C94.9141 219.177 95.3482 219.003 95.6956 218.917C103.164 216.222 109.156 214.745 108.895 213.615C108.721 212.659 102.382 213.181 94.5667 215.788C94.2193 215.962 93.7852 216.049 93.4378 216.222C93.0905 216.396 92.6563 216.483 92.3089 216.657C84.5803 219.525 79.37 223.088 79.8042 223.957Z" fill="#1B1B1B"/>
<path d="M75.3755 219.525C75.5492 220.655 81.1068 220.046 88.2275 218.308C88.5749 218.221 88.9222 218.134 89.2696 218.047C89.6169 217.961 89.9643 217.874 90.3116 217.787C97.2587 215.875 102.469 213.615 102.035 212.572C101.687 211.616 96.3035 212.833 89.4433 214.571C89.0959 214.658 88.7486 214.745 88.4012 214.832C88.0538 214.919 87.7065 215.006 87.3591 215.093C80.4121 217.005 75.115 218.569 75.3755 219.525Z" fill="#1B1B1B"/>
<path d="M70.0784 218.047C70.5994 219.09 75.3755 217.178 81.6278 215.353C81.9752 215.266 82.2357 215.18 82.5831 215.093C82.9304 215.006 83.1909 214.919 83.5383 214.832C89.8775 212.92 94.9141 211.964 94.7404 210.834C94.6536 209.791 89.2696 209.878 82.6699 211.616C82.3225 211.703 81.9752 211.79 81.7147 211.877C81.3673 211.964 81.1068 212.051 80.7595 212.138C74.1598 214.31 69.6442 217.178 70.0784 218.047Z" fill="#1B1B1B"/>
<path d="M65.3891 214.137C65.6496 215.267 69.9915 214.571 75.5492 213.181C75.8097 213.094 76.0702 213.007 76.3307 212.92C76.5912 212.833 76.8518 212.746 77.1123 212.746C82.5831 211.182 86.7513 209.618 86.4039 208.575C86.1434 207.532 81.8015 208.14 76.2439 209.531C75.9834 209.618 75.7229 209.705 75.4623 209.791C75.2018 209.878 74.9413 209.965 74.6808 209.965C69.21 211.443 65.1286 213.094 65.3891 214.137Z" fill="#1B1B1B"/>
<path d="M52.1029 209.705C52.3634 210.834 56.7053 210.139 62.2629 208.749C62.5234 208.662 62.784 208.575 63.0445 208.488C63.305 208.401 63.5655 208.314 63.826 208.314C69.2968 206.75 73.465 205.185 73.1177 204.143C72.8572 203.1 68.5153 203.708 62.9576 205.099C62.6971 205.185 62.4366 205.272 62.1761 205.359C61.9156 205.446 61.6551 205.533 61.3945 205.533C55.9237 207.01 51.8424 208.662 52.1029 209.705Z" fill="#1B1B1B"/>
<path d="M46.0242 213.441C46.1979 214.571 53.0581 213.789 61.7419 211.877C62.1761 211.79 62.6103 211.703 63.0445 211.616C63.4787 211.53 63.9129 211.443 64.3471 211.356C73.0309 209.357 79.5437 207.184 79.2832 206.054C79.0227 205.012 72.3362 206.228 63.6524 208.053C63.2182 208.14 62.784 208.227 62.3498 208.314C61.9156 208.401 61.4814 208.488 61.0472 208.575C52.4502 210.66 45.8505 212.399 46.0242 213.441Z" fill="#1B1B1B"/>
<path d="M43.5059 210.052C43.9401 210.487 45.1558 209.878 47.1531 209.183C49.2372 208.488 52.2766 207.88 55.8369 207.184C56.1843 207.097 56.5316 207.097 56.879 207.01C57.2263 206.924 57.5737 206.924 57.921 206.837C61.4814 206.228 64.6944 205.794 66.9522 205.272C69.21 204.751 70.5994 204.229 70.5994 203.708C70.5126 203.187 69.1231 202.926 66.7785 202.839C64.4339 202.752 61.134 202.926 57.4 203.534C57.0526 203.621 56.6185 203.621 56.2711 203.708C55.9238 203.795 55.5764 203.795 55.1422 203.882C53.3186 204.229 51.5818 204.664 50.0188 205.185C48.4557 205.707 47.0663 206.315 46.0242 206.924C44.0269 208.314 43.1585 209.705 43.5059 210.052Z" fill="#1B1B1B"/>
<path d="M41.5955 207.966C42.1165 209.009 45.59 207.879 50.0188 206.141C50.2793 206.054 50.4529 205.968 50.7135 205.881C50.974 205.794 51.1476 205.707 51.4082 205.62C55.8369 203.795 59.1368 202.317 58.7894 201.188C58.442 200.232 54.708 200.84 50.1924 202.491C49.9319 202.578 49.7582 202.665 49.4977 202.752C49.2372 202.839 49.0635 202.926 48.803 203.013C44.2874 204.925 41.1613 207.01 41.5955 207.966Z" fill="#1B1B1B"/>
<path d="M64.6075 213.441C65.1286 214.484 68.6021 213.355 73.0308 211.616C73.2914 211.53 73.465 211.443 73.7255 211.356C73.9861 211.269 74.1597 211.182 74.4202 211.095C78.849 209.27 82.1488 207.793 81.8015 206.663C81.4541 205.707 77.7201 206.315 73.2045 207.966C72.944 208.053 72.7703 208.14 72.5098 208.227C72.2493 208.314 72.0756 208.401 71.8151 208.488C67.2995 210.4 64.1734 212.486 64.6075 213.441Z" fill="#1B1B1B"/>
<path d="M81.8015 217.787C82.3225 218.83 85.7961 217.7 90.2248 215.962C90.4853 215.875 90.659 215.788 90.9195 215.701C91.18 215.614 91.3537 215.527 91.6142 215.44C96.043 213.615 99.3428 212.138 98.9955 211.008C98.6481 210.052 94.9141 210.661 90.3985 212.312C90.138 212.399 89.9643 212.486 89.7038 212.572C89.4433 212.659 89.2696 212.746 89.0091 212.833C84.4935 214.832 81.3673 216.918 81.8015 217.787Z" fill="#1B1B1B"/>
<path d="M24.8357 207.966C25.2699 209.009 30.6538 207.271 37.6877 205.098C38.0351 205.012 38.3824 204.838 38.7298 204.751C39.0771 204.664 39.4245 204.577 39.7718 204.403C46.8057 202.144 52.2765 200.492 52.016 199.363C51.8423 198.32 46.0242 199.015 38.8166 201.188C38.4693 201.275 38.1219 201.448 37.7746 201.535C37.4272 201.622 37.0799 201.796 36.7325 201.883C29.6118 204.229 24.4883 207.01 24.8357 207.966Z" fill="#1B1B1B"/>
</g>
<defs>
<clipPath id="clip0_17_1213">
<rect width="287" height="225" fill="white"/>
</clipPath>
</defs>
</svg>
